<?xml version="1.0" standalone="no"?><!DOCTYPE svg PUBLIC "-//W3C//DTD SVG 1.1//EN" "http://www.w3.org/Graphics/SVG/1.1/DTD/svg11.dtd"><svg t="1547911134707" class="icon" style="" viewBox="0 0 1025 1024" version="1.1" xmlns="http://www.w3.org/2000/svg" p-id="4667" xmlns:xlink="http://www.w3.org/1999/xlink" width="200.1953125" height="200"><defs><style type="text/css"></style></defs><path d="M513.343679 1023.99808a515.388457 515.388457 0 0 1-226.110445-52.41564l-166.910853 21.82385a78.719459 78.719459 0 0 1-69.567522-26.239819 78.911457 78.911457 0 0 1-18.87987-62.207573l21.82385-166.910852a510.268492 510.268492 0 0 1 97.407331-588.091957A508.668503 508.668503 0 0 1 513.15168 0.00512c136.831059 0 265.342176 53.247634 362.045511 149.950969C971.964526 246.659424 1025.21216 375.23454 1025.21216 512.0016s-53.247634 265.342176-150.014969 362.10951A508.412505 508.412505 0 0 1 513.343679 1023.99808z m-220.478484-117.439193c5.119965 0 10.11193 1.215992 14.655899 3.583976A451.004899 451.004899 0 0 0 513.343679 959.99852a444.796942 444.796942 0 0 0 316.605823-131.135098C914.556921 744.256003 961.2126 631.680777 961.2126 512.0016s-46.655679-232.190404-131.263098-316.797822S632.830858 64.00468 513.15168 64.00468s-232.190404 46.59168-316.797822 131.199098a446.52493 446.52493 0 0 0-81.215441 522.492408 31.99978 31.99978 0 0 1 3.263977 18.81587l-23.103841 176.702786a14.719899 14.719899 0 0 0 3.583976 11.775919c2.815981 3.263978 6.847953 5.119965 11.071923 5.119964l178.750772-23.23184a23.23184 23.23184 0 0 1 4.159971-0.319998z" p-id="4668" fill="#e6e6e6"></path><path d="M513.791676 678.272457a31.99978 31.99978 0 0 1-31.99978-31.99978c0-55.23162 24.511831-108.735252 65.53555-143.039017 6.911952-5.75996 14.335901-11.58392 21.823849-17.40788 21.631851-16.895884 44.031697-34.303764 55.615618-54.463626 15.99989-27.839809 11.263923-67.967533-11.327922-95.551343-28.543804-34.87976-79.167456-38.591735-99.647315-38.591734-116.479199 0-121.471165 93.823355-121.663164 104.511281-0.319998 17.599879-16.639886 29.631796-32.319777 31.551783a31.871781 31.871781 0 0 1-31.679783-31.99978c0.191999-58.1116 39.29573-167.998845 185.662724-167.998845 62.52757 0 116.863197 22.591845 149.182974 62.015574 39.423729 48.06367 46.59168 117.183194 17.343881 167.998845-17.791878 30.975787-46.463681 53.311633-71.743507 73.087497a526.716379 526.716379 0 0 0-20.159861 15.935891 123.199153 123.199153 0 0 0-42.623707 93.951354 31.99978 31.99978 0 0 1-31.99978 31.99978zM542.591478 754.87993a32.255778 32.255778 0 0 1-42.495708 42.495708 30.015794 30.015794 0 0 1-16.319888-16.319888 32.255778 32.255778 0 0 1 42.495708-42.495708c7.29595 2.94398 13.439908 9.087938 16.319888 16.319888z" p-id="4669" fill="#e6e6e6"></path></svg>