<?xml version="1.0" standalone="no"?><!DOCTYPE svg PUBLIC "-//W3C//DTD SVG 1.1//EN" "http://www.w3.org/Graphics/SVG/1.1/DTD/svg11.dtd"><svg t="1547994975729" class="icon" style="" viewBox="0 0 1024 1024" version="1.1" xmlns="http://www.w3.org/2000/svg" p-id="2576" xmlns:xlink="http://www.w3.org/1999/xlink" width="200" height="200"><defs><style type="text/css"></style></defs><path d="M512 512.2l0.1-0.4-0.1 0.4zM885.4 847.7L754.6 716.9c25.3-28.7 45.6-61 60.5-96.4 18.6-44 28-90.7 28-138.8s-9.4-94.8-28-138.8c-18-42.5-43.7-80.6-76.4-113.4S667.8 171 625.3 153.1c-44-18.6-90.7-28-138.8-28s-94.8 9.4-138.8 28c-42.5 18-80.6 43.7-113.4 76.4-32.7 32.7-58.5 70.9-76.4 113.4-18.6 44-28 90.7-28 138.8s9.4 94.9 28 138.8c18 42.5 43.7 80.6 76.4 113.4 32.7 32.7 70.9 58.5 113.4 76.4 44 18.6 90.7 28 138.8 28s94.8-9.4 138.8-28c31.2-13.2 60-30.5 86-51.8L843 890.2c5.9 5.9 13.5 8.8 21.2 8.8s15.4-2.9 21.2-8.8c11.7-11.8 11.7-30.7 0-42.5z m-398.9-69.3c-163.6 0-296.7-133.1-296.7-296.7S322.9 185 486.5 185 783.2 318.1 783.2 481.7 650.1 778.4 486.5 778.4z" p-id="2577" fill="#e6e6e6"></path></svg>