<?xml version="1.0" standalone="no"?><!DOCTYPE svg PUBLIC "-//W3C//DTD SVG 1.1//EN" "http://www.w3.org/Graphics/SVG/1.1/DTD/svg11.dtd"><svg t="1554728249994" class="icon" style="" viewBox="0 0 1253 1024" version="1.1" xmlns="http://www.w3.org/2000/svg" p-id="2315" xmlns:xlink="http://www.w3.org/1999/xlink" width="244.7265625" height="200"><defs><style type="text/css"></style></defs><path d="M899.531801 300.639396H265.252676c-13.750139 0-21.716128-14.216052-17.784271-31.216224l57.477853-248.24114C307.594012 9.750098 318.685033 0.568188 329.651053 0.568188h505.482371c10.96602 0 22.057041 9.181911 24.704795 20.613844l57.466489 248.24114c3.943222 17.000171-4.022768 31.216224-17.772907 31.216224z" fill="#8a8a8a" p-id="2316"></path><path d="M0.568188 184.138221m52.08007 0l1059.487961 0q52.080071 0 52.08007 52.080071l0 661.904404q0 52.080071-52.08007 52.080071l-1059.487961 0q-52.080071 0-52.08007-52.080071l0-661.904404q0-52.080071 52.08007-52.080071Z" fill="#8a8a8a" p-id="2317"></path><path d="M354.003571 567.164812a232.115978 228.388667 90 1 0 456.777335 0 232.115978 228.388667 90 1 0-456.777335 0Z" fill="#ffffff" p-id="2318"></path><path d="M433.197552 567.164812a151.62653 149.194687 90 1 0 298.389373 0 151.62653 149.194687 90 1 0-298.389373 0Z" fill="#8a8a8a" p-id="2319"></path></svg>